<svg width="42" height="33" viewBox="0 0 42 33" fill="none" xmlns="http://www.w3.org/2000/svg">
<path d="M19.2739 8.27392C19.2739 12.8281 17.6592 17.2994 14.4299 21.6879C11.2006 26.0765 6.72929 29.637 1.01592 32.3695L0.394897 30.5064C4.20381 28.2707 7.30891 25.7452 9.71018 22.93C12.1115 20.1147 13.4363 17.1752 13.6847 14.1115C12.6083 15.0223 11.4904 15.8089 10.3312 16.4714C9.17196 17.051 7.97133 17.3408 6.72929 17.3408C5.23885 17.3408 4.07961 16.8854 3.25158 15.9746C2.42356 15.0637 2.00955 13.8217 2.00955 12.2484C2.00955 10.2612 2.50636 8.39812 3.49999 6.65927C4.57642 4.83762 5.94267 3.34717 7.59872 2.18794C9.33757 0.945894 11.1178 0.324873 12.9395 0.324873C15.0923 0.324873 16.6656 1.0287 17.6592 2.43634C18.7357 3.76118 19.2739 5.70704 19.2739 8.27392ZM41.2579 8.27392C41.2579 12.8281 39.6019 17.2994 36.2898 21.6879C33.0605 26.0765 28.5892 29.637 22.8758 32.3695L22.2548 30.5064C26.0637 28.2707 29.1688 25.7452 31.57 22.93C33.9713 20.1147 35.2962 17.1752 35.5446 14.1115C34.4681 15.0223 33.3503 15.8089 32.1911 16.4714C31.0318 17.051 29.8312 17.3408 28.5892 17.3408C27.0987 17.3408 25.9395 16.8854 25.1115 15.9746C24.2834 15.0637 23.8694 13.8217 23.8694 12.2484C23.8694 10.2612 24.3662 8.39812 25.3599 6.65927C26.4363 4.83762 27.8025 3.34717 29.4586 2.18794C31.1974 0.945894 32.9777 0.324873 34.7993 0.324873C36.9522 0.324873 38.5669 1.0287 39.6433 2.43634C40.7197 3.76118 41.2579 5.70704 41.2579 8.27392Z" fill="white" fill-opacity="0.6"/>
</svg>
