<svg width="81" height="43" viewBox="0 0 81 43" fill="none" xmlns="http://www.w3.org/2000/svg">
<path d="M23.7397 20.4493C23.7397 22.0718 23.8393 23.9221 24.0386 26C22.1884 25.9146 19.0715 25.8719 14.6879 25.8719C8.82412 25.8719 4.41206 25.9146 1.45171 26V25.1461C2.41952 25.0891 3.11691 24.9753 3.54388 24.8045C3.97085 24.6337 4.2555 24.3063 4.39783 23.8224C4.56862 23.3385 4.65401 22.5557 4.65401 21.4741V4.56594C4.65401 3.48427 4.56862 2.70149 4.39783 2.21758C4.2555 1.73368 3.95662 1.40633 3.50118 1.23554C3.07421 1.06476 2.39105 0.950897 1.45171 0.893967V0.040019C4.41206 0.125414 8.82412 0.168112 14.6879 0.168112C18.673 0.168112 21.5052 0.125414 23.1847 0.040019C22.9854 1.94717 22.8858 3.65506 22.8858 5.1637C22.8858 6.27383 22.9285 7.15624 23.0139 7.81093H22.0318C21.6049 5.36295 20.8648 3.6266 19.8116 2.60186C18.7584 1.54866 17.3067 1.02206 15.4564 1.02206H13.8766C13.1365 1.02206 12.5815 1.09322 12.2114 1.23554C11.8414 1.3494 11.571 1.60559 11.4002 2.0041C11.2579 2.37414 11.1867 2.9719 11.1867 3.79738V12.5076H13.1935C14.5029 12.5076 15.4849 12.0522 16.1396 11.1413C16.8228 10.202 17.2782 9.12032 17.5059 7.89633H18.4879C18.4026 8.86414 18.3599 9.97427 18.3599 11.2267V12.9346C18.3599 14.2155 18.4452 15.895 18.616 17.9729H17.634C17.4347 16.6351 16.9793 15.5392 16.2677 14.6852C15.5845 13.8028 14.5598 13.3616 13.1935 13.3616H11.1867V22.2426C11.1867 23.0681 11.2579 23.6801 11.4002 24.0786C11.571 24.4487 11.8414 24.7048 12.2114 24.8472C12.5815 24.961 13.1365 25.018 13.8766 25.018H15.7126C17.7336 25.018 19.3134 24.4344 20.452 23.2674C21.6191 22.1003 22.4303 20.1362 22.8858 17.3751H23.8678C23.7824 18.1722 23.7397 19.1969 23.7397 20.4493ZM62.3541 0.893967C61.3294 0.950897 60.5751 1.06476 60.0912 1.23554C59.6357 1.40633 59.3226 1.73368 59.1518 2.21758C58.981 2.70149 58.8956 3.48427 58.8956 4.56594V21.4741C58.8956 22.5557 58.981 23.3385 59.1518 23.8224C59.3226 24.3063 59.6357 24.6337 60.0912 24.8045C60.5751 24.9753 61.3294 25.0891 62.3541 25.1461V26C60.817 25.9146 58.6679 25.8719 55.9068 25.8719C52.6049 25.8719 50.1854 25.9146 48.6483 26V25.1461C49.673 25.0891 50.4131 24.9753 50.8685 24.8045C51.3524 24.6337 51.6798 24.3063 51.8506 23.8224C52.0214 23.3385 52.1068 22.5557 52.1068 21.4741V2.72995L42.3291 26.2135H41.6459L31.7401 2.77265V20.2786C31.7401 21.531 31.854 22.4846 32.0817 23.1393C32.3094 23.7655 32.7222 24.2209 33.3199 24.5056C33.9462 24.7902 34.8855 25.0037 36.138 25.1461V26C34.914 25.9146 33.2915 25.8719 31.2705 25.8719C29.7049 25.8719 28.4667 25.9146 27.5558 26V25.1461C28.4951 25.0037 29.1783 24.7902 29.6053 24.5056C30.0607 24.2209 30.3596 23.7655 30.5019 23.1393C30.6727 22.5131 30.7581 21.5595 30.7581 20.2786V4.56594C30.7581 3.48427 30.6727 2.70149 30.5019 2.21758C30.3311 1.73368 30.0038 1.40633 29.5199 1.23554C29.0644 1.06476 28.3243 0.950897 27.2996 0.893967V0.040019C28.7798 0.125414 31.0427 0.168112 34.0885 0.168112C35.5687 0.168112 36.8353 0.125414 37.8885 0.040019L44.9763 17.0763L52.1068 0.168112H55.9068C58.6679 0.168112 60.817 0.125414 62.3541 0.040019V0.893967ZM69.4349 20.0224C70.545 20.0224 71.4274 20.3213 72.0821 20.919C72.7368 21.4883 73.0641 22.2853 73.0641 23.3101C73.0641 24.3348 72.7368 25.1461 72.0821 25.7438C71.4274 26.3131 70.545 26.5978 69.4349 26.5978C68.3247 26.5978 67.4423 26.3131 66.7876 25.7438C66.1329 25.1461 65.8056 24.3348 65.8056 23.3101C65.8056 22.2853 66.1329 21.4883 66.7876 20.919C67.4423 20.3213 68.3247 20.0224 69.4349 20.0224ZM5.58 31.42C6.00667 31.42 6.42 31.4733 6.82 31.58C7.22 31.6867 7.58 31.8467 7.9 32.06C8.20667 32.26 8.44 32.4933 8.6 32.76C8.76 33.0133 8.84 33.2933 8.84 33.6C8.84 33.96 8.74 34.24 8.54 34.44C8.34 34.6267 8.08667 34.72 7.78 34.72C7.48667 34.72 7.22667 34.6333 7 34.46C6.78667 34.2867 6.68 34.04 6.68 33.72C6.68 33.4133 6.76 33.1667 6.92 32.98C7.09333 32.7933 7.29333 32.6733 7.52 32.62C7.38667 32.38 7.14667 32.18 6.8 32.02C6.46667 31.86 6.10667 31.78 5.72 31.78C5.38667 31.78 5.05333 31.86 4.72 32.02C4.38667 32.18 4.08 32.4467 3.8 32.82C3.52 33.18 3.29333 33.68 3.12 34.32C2.94667 34.9467 2.86 35.7333 2.86 36.68C2.86 37.8533 2.99333 38.7867 3.26 39.48C3.52667 40.1733 3.87333 40.6733 4.3 40.98C4.74 41.2733 5.22 41.42 5.74 41.42C6.08667 41.42 6.44 41.3533 6.8 41.22C7.16 41.0867 7.5 40.8733 7.82 40.58C8.14 40.2733 8.41333 39.8667 8.64 39.36L9.02 39.5C8.88667 39.9267 8.66667 40.36 8.36 40.8C8.05333 41.2267 7.65333 41.58 7.16 41.86C6.66667 42.14 6.06 42.28 5.34 42.28C4.51333 42.28 3.76667 42.0667 3.1 41.64C2.43333 41.2133 1.9 40.6067 1.5 39.82C1.11333 39.02 0.92 38.0733 0.92 36.98C0.92 35.8867 1.11333 34.9267 1.5 34.1C1.9 33.26 2.45333 32.6067 3.16 32.14C3.86667 31.66 4.67333 31.42 5.58 31.42ZM15.4066 31.42C16.2599 31.42 17.0266 31.6067 17.7066 31.98C18.3866 32.3533 18.9266 32.94 19.3266 33.74C19.7399 34.54 19.9466 35.58 19.9466 36.86C19.9466 38.14 19.7399 39.18 19.3266 39.98C18.9266 40.7667 18.3866 41.3467 17.7066 41.72C17.0266 42.0933 16.2599 42.28 15.4066 42.28C14.5666 42.28 13.7999 42.0933 13.1066 41.72C12.4266 41.3467 11.8799 40.7667 11.4666 39.98C11.0666 39.18 10.8666 38.14 10.8666 36.86C10.8666 35.58 11.0666 34.54 11.4666 33.74C11.8799 32.94 12.4266 32.3533 13.1066 31.98C13.7999 31.6067 14.5666 31.42 15.4066 31.42ZM15.4066 31.82C14.6466 31.82 14.0199 32.2133 13.5266 33C13.0466 33.7867 12.8066 35.0733 12.8066 36.86C12.8066 38.6467 13.0466 39.9333 13.5266 40.72C14.0199 41.4933 14.6466 41.88 15.4066 41.88C16.1666 41.88 16.7866 41.4933 17.2666 40.72C17.7599 39.9333 18.0066 38.6467 18.0066 36.86C18.0066 35.0733 17.7599 33.7867 17.2666 33C16.7866 32.2133 16.1666 31.82 15.4066 31.82ZM25.2436 31.42C25.7769 31.42 26.2303 31.5067 26.6036 31.68C26.9769 31.8533 27.2503 32.0133 27.4236 32.16C27.8636 32.52 28.1303 32.28 28.2236 31.44H28.6836C28.6569 31.8133 28.6369 32.26 28.6236 32.78C28.6103 33.2867 28.6036 33.9733 28.6036 34.84H28.1436C28.0636 34.3467 27.9236 33.8667 27.7236 33.4C27.5369 32.9333 27.2569 32.5533 26.8836 32.26C26.5103 31.9533 26.0236 31.8 25.4236 31.8C24.9569 31.8 24.5636 31.9333 24.2436 32.2C23.9369 32.4533 23.7836 32.8333 23.7836 33.34C23.7836 33.74 23.9036 34.0867 24.1436 34.38C24.3836 34.66 24.6969 34.9267 25.0836 35.18C25.4703 35.42 25.8903 35.6867 26.3436 35.98C26.8503 36.3 27.3103 36.6267 27.7236 36.96C28.1369 37.2933 28.4636 37.66 28.7036 38.06C28.9569 38.46 29.0836 38.9333 29.0836 39.48C29.0836 40.0933 28.9236 40.6067 28.6036 41.02C28.2836 41.4333 27.8636 41.7467 27.3436 41.96C26.8369 42.1733 26.2769 42.28 25.6636 42.28C25.3703 42.28 25.0903 42.2533 24.8236 42.2C24.5703 42.16 24.3236 42.0933 24.0836 42C23.9503 41.9333 23.8103 41.8533 23.6636 41.76C23.5303 41.6667 23.3969 41.5667 23.2636 41.46C23.1303 41.3533 23.0103 41.36 22.9036 41.48C22.7969 41.5867 22.7169 41.8067 22.6636 42.14H22.2036C22.2303 41.7133 22.2503 41.1933 22.2636 40.58C22.2769 39.9667 22.2836 39.1533 22.2836 38.14H22.7436C22.8369 38.8867 22.9703 39.54 23.1436 40.1C23.3169 40.66 23.5903 41.1 23.9636 41.42C24.3369 41.7267 24.8569 41.88 25.5236 41.88C25.7903 41.88 26.0569 41.82 26.3236 41.7C26.6036 41.58 26.8369 41.38 27.0236 41.1C27.2103 40.82 27.3036 40.4467 27.3036 39.98C27.3036 39.3933 27.0903 38.9133 26.6636 38.54C26.2369 38.1667 25.6969 37.7733 25.0436 37.36C24.5636 37.0533 24.1103 36.7467 23.6836 36.44C23.2703 36.1333 22.9303 35.7867 22.6636 35.4C22.4103 35.0133 22.2836 34.5467 22.2836 34C22.2836 33.4 22.4169 32.9133 22.6836 32.54C22.9636 32.1533 23.3303 31.8733 23.7836 31.7C24.2369 31.5133 24.7236 31.42 25.2436 31.42ZM37.4089 31.42C37.8756 31.42 38.2822 31.4867 38.6289 31.62C38.9756 31.7533 39.2622 31.94 39.4889 32.18C39.7422 32.4467 39.9156 32.7933 40.0089 33.22C40.1022 33.6467 40.1489 34.1733 40.1489 34.8V40.14C40.1489 40.7 40.2622 41.08 40.4889 41.28C40.7289 41.48 41.1222 41.58 41.6689 41.58V42C41.4422 41.9867 41.0956 41.9733 40.6289 41.96C40.1622 41.9333 39.7089 41.92 39.2689 41.92C38.8289 41.92 38.3956 41.9333 37.9689 41.96C37.5556 41.9733 37.2422 41.9867 37.0289 42V41.58C37.5089 41.58 37.8489 41.48 38.0489 41.28C38.2489 41.08 38.3489 40.7 38.3489 40.14V34.36C38.3489 33.9467 38.3222 33.5667 38.2689 33.22C38.2156 32.8733 38.0822 32.5933 37.8689 32.38C37.6556 32.1667 37.3089 32.06 36.8289 32.06C36.3089 32.06 35.8422 32.22 35.4289 32.54C35.0289 32.86 34.7089 33.3 34.4689 33.86C34.2422 34.4067 34.1289 35.02 34.1289 35.7V40.14C34.1289 40.7 34.2289 41.08 34.4289 41.28C34.6289 41.48 34.9689 41.58 35.4489 41.58V42C35.2356 41.9867 34.9156 41.9733 34.4889 41.96C34.0756 41.9333 33.6489 41.92 33.2089 41.92C32.7689 41.92 32.3156 41.9333 31.8489 41.96C31.3822 41.9733 31.0356 41.9867 30.8089 42V41.58C31.3556 41.58 31.7422 41.48 31.9689 41.28C32.2089 41.08 32.3289 40.7 32.3289 40.14V33.88C32.3289 33.28 32.2222 32.84 32.0089 32.56C31.7956 32.2667 31.3956 32.12 30.8089 32.12V31.7C31.2356 31.74 31.6489 31.76 32.0489 31.76C32.4356 31.76 32.8022 31.74 33.1489 31.7C33.5089 31.6467 33.8356 31.5733 34.1289 31.48V33.84C34.4756 32.9733 34.9489 32.3533 35.5489 31.98C36.1489 31.6067 36.7689 31.42 37.4089 31.42ZM43.4289 31.42C43.8956 31.42 44.3022 31.4867 44.6489 31.62C44.9956 31.7533 45.2822 31.94 45.5089 32.18C45.7622 32.4467 45.9356 32.7933 46.0289 33.22C46.1222 33.6467 46.1689 34.1733 46.1689 34.8V40.14C46.1689 40.7 46.2822 41.08 46.5089 41.28C46.7489 41.48 47.1422 41.58 47.6889 41.58V42C47.4622 41.9867 47.1156 41.9733 46.6489 41.96C46.1822 41.9333 45.7289 41.92 45.2889 41.92C44.8489 41.92 44.4156 41.9333 43.9889 41.96C43.5756 41.9733 43.2622 41.9867 43.0489 42V41.58C43.5289 41.58 43.8689 41.48 44.0689 41.28C44.2689 41.08 44.3689 40.7 44.3689 40.14V34.36C44.3689 33.9467 44.3422 33.5667 44.2889 33.22C44.2356 32.8733 44.1022 32.5933 43.8889 32.38C43.6756 32.1667 43.3289 32.06 42.8489 32.06C42.3289 32.06 41.8622 32.22 41.4489 32.54C41.0489 32.86 40.7289 33.2933 40.4889 33.84C40.2622 34.3867 40.1489 35 40.1489 35.68L40.0889 33.82C40.4489 32.9 40.9356 32.2733 41.5489 31.94C42.1622 31.5933 42.7889 31.42 43.4289 31.42ZM53.6228 31.42C54.7961 31.42 55.7095 31.78 56.3628 32.5C57.0295 33.2067 57.3628 34.3133 57.3628 35.82H50.3028L50.2828 35.44H55.4428C55.4695 34.7867 55.4161 34.1867 55.2828 33.64C55.1495 33.08 54.9361 32.6333 54.6428 32.3C54.3628 31.9667 53.9961 31.8 53.5428 31.8C52.9295 31.8 52.3828 32.1067 51.9028 32.72C51.4361 33.3333 51.1561 34.3067 51.0628 35.64L51.1228 35.72C51.0961 35.92 51.0761 36.14 51.0628 36.38C51.0495 36.62 51.0428 36.86 51.0428 37.1C51.0428 38.0067 51.1895 38.7867 51.4828 39.44C51.7761 40.0933 52.1561 40.5933 52.6228 40.94C53.1028 41.2733 53.5961 41.44 54.1028 41.44C54.5028 41.44 54.8828 41.38 55.2428 41.26C55.6028 41.1267 55.9361 40.9133 56.2428 40.62C56.5495 40.3267 56.8161 39.9333 57.0428 39.44L57.4428 39.6C57.2961 40.04 57.0561 40.4667 56.7228 40.88C56.3895 41.2933 55.9695 41.6333 55.4628 41.9C54.9561 42.1533 54.3695 42.28 53.7028 42.28C52.7428 42.28 51.9161 42.06 51.2228 41.62C50.5428 41.18 50.0161 40.5733 49.6428 39.8C49.2828 39.0133 49.1028 38.1133 49.1028 37.1C49.1028 35.9267 49.2895 34.92 49.6628 34.08C50.0361 33.2267 50.5628 32.5733 51.2428 32.12C51.9228 31.6533 52.7161 31.42 53.6228 31.42ZM62.3 28.38V31.72H65.26V32.12H62.3V39.86C62.3 40.4867 62.4133 40.9267 62.64 41.18C62.8667 41.4333 63.18 41.56 63.58 41.56C63.98 41.56 64.3267 41.4 64.62 41.08C64.9133 40.7467 65.1667 40.1933 65.38 39.42L65.78 39.52C65.6467 40.2933 65.38 40.9467 64.98 41.48C64.5933 42.0133 63.9933 42.28 63.18 42.28C62.7267 42.28 62.3533 42.22 62.06 42.1C61.7667 41.9933 61.5067 41.8333 61.28 41.62C60.9867 41.3133 60.78 40.9467 60.66 40.52C60.5533 40.0933 60.5 39.5267 60.5 38.82V32.12H58.58V31.72H60.5V28.66C60.8333 28.6467 61.1533 28.62 61.46 28.58C61.7667 28.54 62.0467 28.4733 62.3 28.38ZM68.6303 26.7C68.977 26.7 69.277 26.8267 69.5303 27.08C69.7836 27.3333 69.9103 27.6333 69.9103 27.98C69.9103 28.3267 69.7836 28.6267 69.5303 28.88C69.277 29.1333 68.977 29.26 68.6303 29.26C68.2836 29.26 67.9836 29.1333 67.7303 28.88C67.477 28.6267 67.3503 28.3267 67.3503 27.98C67.3503 27.6333 67.477 27.3333 67.7303 27.08C67.9836 26.8267 68.2836 26.7 68.6303 26.7ZM69.6703 31.48V40.14C69.6703 40.7 69.7836 41.08 70.0103 41.28C70.2503 41.48 70.6436 41.58 71.1903 41.58V42C70.9636 41.9867 70.617 41.9733 70.1503 41.96C69.697 41.9333 69.237 41.92 68.7703 41.92C68.317 41.92 67.857 41.9333 67.3903 41.96C66.9236 41.9733 66.577 41.9867 66.3503 42V41.58C66.897 41.58 67.2836 41.48 67.5103 41.28C67.7503 41.08 67.8703 40.7 67.8703 40.14V33.88C67.8703 33.28 67.7636 32.84 67.5503 32.56C67.337 32.2667 66.937 32.12 66.3503 32.12V31.7C66.777 31.74 67.1903 31.76 67.5903 31.76C67.977 31.76 68.3436 31.74 68.6903 31.7C69.0503 31.6467 69.377 31.5733 69.6703 31.48ZM77.4097 31.42C77.8364 31.42 78.2497 31.4733 78.6497 31.58C79.0497 31.6867 79.4097 31.8467 79.7297 32.06C80.0364 32.26 80.2697 32.4933 80.4297 32.76C80.5897 33.0133 80.6697 33.2933 80.6697 33.6C80.6697 33.96 80.5697 34.24 80.3697 34.44C80.1697 34.6267 79.9164 34.72 79.6097 34.72C79.3164 34.72 79.0564 34.6333 78.8297 34.46C78.6164 34.2867 78.5097 34.04 78.5097 33.72C78.5097 33.4133 78.5897 33.1667 78.7497 32.98C78.923 32.7933 79.123 32.6733 79.3497 32.62C79.2164 32.38 78.9764 32.18 78.6297 32.02C78.2964 31.86 77.9364 31.78 77.5497 31.78C77.2164 31.78 76.883 31.86 76.5497 32.02C76.2164 32.18 75.9097 32.4467 75.6297 32.82C75.3497 33.18 75.123 33.68 74.9497 34.32C74.7764 34.9467 74.6897 35.7333 74.6897 36.68C74.6897 37.8533 74.823 38.7867 75.0897 39.48C75.3564 40.1733 75.703 40.6733 76.1297 40.98C76.5697 41.2733 77.0497 41.42 77.5697 41.42C77.9164 41.42 78.2697 41.3533 78.6297 41.22C78.9897 41.0867 79.3297 40.8733 79.6497 40.58C79.9697 40.2733 80.243 39.8667 80.4697 39.36L80.8497 39.5C80.7164 39.9267 80.4964 40.36 80.1897 40.8C79.883 41.2267 79.483 41.58 78.9897 41.86C78.4964 42.14 77.8897 42.28 77.1697 42.28C76.343 42.28 75.5964 42.0667 74.9297 41.64C74.263 41.2133 73.7297 40.6067 73.3297 39.82C72.943 39.02 72.7497 38.0733 72.7497 36.98C72.7497 35.8867 72.943 34.9267 73.3297 34.1C73.7297 33.26 74.283 32.6067 74.9897 32.14C75.6964 31.66 76.503 31.42 77.4097 31.42Z" fill="#870D0D"/>
</svg>
